# xmcd
# Copyright (C) 1995-1998 Ti Kan
#
# Track frame offsets:
#       150
#       14167
#       29310
#       44582
#       60705
#       75680
#       89787
#       110150
#       125032
#       143352
#       163247
#       180450
#       202035
#
# Disc length: 2919 seconds
#
# Revision: 2
# Processed by: cddbd v1.5.1PL0 Copyright (c) Steve Scherf et al.
# Submitted via: CD-Transfer v1.0
#
DISCID=c10b650d
DTITLE=Airbäg - Wiiber-Wg
DYEAR=2005
DGENRE=
TTITLE0=Superzuckersexysummergroove
TTITLE1=Koenig
TTITLE2=Meh Chani Nüme Gäh
TTITLE3=Fisch
TTITLE4=Mis Deheii
TTITLE5=Wiiber Wg
TTITLE6=Piazza
TTITLE7=Pilot
TTITLE8=Gump I See
TTITLE9=Küss Mi Nomal Wie Letschti Nacht
TTITLE10=Alien
TTITLE11=Tooschter
TTITLE12=Mit Mier
EXTD=
EXTT0=
EXTT1=
EXTT2=
EXTT3=
EXTT4=
EXTT5=
EXTT6=
EXTT7=
EXTT8=
EXTT9=
EXTT10=
EXTT11=
EXTT12=
PLAYORDER=
